<svg width="176" height="56" viewBox="0 0 176 56" fill="none" xmlns="http://www.w3.org/2000/svg">
<rect width="42" height="56" fill="#FBB731"/>
<path fill-rule="evenodd" clip-rule="evenodd" d="M40.5 7H43.5C54.2644 7.01239 62.9876 15.7356 63 26.5C63 27.3284 62.3284 28 61.5 28H22.5C21.6716 28 21 27.3284 21 26.5C21.0124 15.7356 29.7356 7.01239 40.5 7ZM40.4999 9.99996C31.9723 10.0102 24.8533 16.5086 24.0675 25H59.9324C59.1467 16.5085 52.0277 10.0102 43.5 9.99996H40.4999Z" fill="#443737"/>
<path fill-rule="evenodd" clip-rule="evenodd" d="M55.5 37.1084H61.5001C62.3285 37.1084 63.0001 37.7739 63 38.5949V41.5677C62.9951 45.6704 59.6401 48.9951 55.5 49H28.5C24.3599 48.9951 21.0049 45.6704 21 41.5677V38.5949C21 37.7739 21.6716 37.1084 22.5 37.1084H43.4999C43.8245 37.1084 44.1403 37.2127 44.3999 37.4057L49.5 41.1961L54.6 37.4057C54.8596 37.2127 55.1754 37.1084 55.5 37.1084ZM55.5 46.0271C57.9853 46.0271 60 44.0306 60 41.5677V40.0813H55.9995L50.4 44.2434C49.8667 44.6397 49.1333 44.6397 48.6 44.2434L43.0005 40.0813H24V41.5677C24 44.0306 26.0147 46.0271 28.5 46.0271H55.5Z" fill="#443737"/>
<path d="M61.5 31.0361H22.5C21.6716 31.0361 21 31.7158 21 32.5542C21 33.3925 21.6716 34.0723 22.5 34.0723H61.5C62.3284 34.0723 63 33.3926 63 32.5542C63 31.7157 62.3284 31.0361 61.5 31.0361Z" fill="#443737"/>
<path d="M34.4096 15.8555C33.5712 15.8555 32.8916 16.5351 32.8916 17.3735V18.8916C32.8916 19.73 33.5712 20.4097 34.4096 20.4097C35.2481 20.4097 35.9277 19.73 35.9277 18.8916V17.3735C35.9277 16.5351 35.2481 15.8555 34.4096 15.8555Z" fill="#443737"/>
<path d="M42 15.8555C41.1616 15.8555 40.4819 16.5351 40.4819 17.3735V18.8916C40.4819 19.73 41.1616 20.4097 42 20.4097C42.8384 20.4097 43.5181 19.7299 43.5181 18.8915V17.3735C43.5181 16.5351 42.8384 15.8555 42 15.8555Z" fill="#443737"/>
<path d="M49.5904 15.8555C48.7519 15.8555 48.0723 16.5351 48.0723 17.3735V18.8916C48.0723 19.73 48.7519 20.4097 49.5904 20.4097C50.4288 20.4097 51.1084 19.73 51.1084 18.8916V17.3735C51.1084 16.5351 50.4287 15.8555 49.5904 15.8555Z" fill="#443737"/>
<path d="M75 36.184V19.264H82.752C84.56 19.264 85.952 19.656 86.928 20.44C87.92 21.224 88.416 22.296 88.416 23.656C88.416 24.552 88.192 25.328 87.744 25.984C87.296 26.624 86.672 27.104 85.872 27.424C86.832 27.696 87.568 28.176 88.08 28.864C88.608 29.552 88.872 30.4 88.872 31.408C88.872 32.912 88.344 34.088 87.288 34.936C86.248 35.768 84.824 36.184 83.016 36.184H75ZM78.552 26.224H82.104C83.928 26.224 84.84 25.52 84.84 24.112C84.84 22.72 83.928 22.024 82.104 22.024H78.552V26.224ZM78.552 33.424H82.512C83.472 33.424 84.176 33.24 84.624 32.872C85.072 32.504 85.296 31.944 85.296 31.192C85.296 30.456 85.072 29.904 84.624 29.536C84.176 29.168 83.472 28.984 82.512 28.984H78.552V33.424Z" fill="#443737"/>
<path d="M98.9355 36.448C96.5355 36.448 94.7035 35.832 93.4395 34.6C92.1915 33.368 91.5675 31.536 91.5675 29.104V19.264H95.2875V29.128C95.2875 30.504 95.5995 31.544 96.2235 32.248C96.8475 32.936 97.7515 33.28 98.9355 33.28C101.351 33.28 102.559 31.896 102.559 29.128V19.264H106.232V29.104C106.232 31.536 105.616 33.368 104.384 34.6C103.152 35.832 101.335 36.448 98.9355 36.448Z" fill="#443737"/>
<path d="M109.523 36.184V19.264H117.251C119.139 19.264 120.595 19.72 121.619 20.632C122.643 21.544 123.155 22.816 123.155 24.448C123.155 25.712 122.827 26.768 122.171 27.616C121.531 28.448 120.611 29.016 119.411 29.32C120.259 29.576 120.955 30.192 121.499 31.168L124.235 36.184H120.131L117.203 30.784C116.963 30.352 116.667 30.056 116.315 29.896C115.963 29.72 115.547 29.632 115.067 29.632H113.243V36.184H109.523ZM113.243 26.944H116.579C118.579 26.944 119.579 26.144 119.579 24.544C119.579 22.96 118.579 22.168 116.579 22.168H113.243V26.944Z" fill="#443737"/>
<path d="M134.493 36.448C132.589 36.448 130.973 36.088 129.645 35.368C128.333 34.648 127.333 33.64 126.645 32.344C125.957 31.048 125.613 29.528 125.613 27.784C125.613 25.992 125.965 24.44 126.669 23.128C127.389 21.816 128.421 20.8 129.765 20.08C131.109 19.36 132.725 19 134.613 19C135.797 19 136.917 19.168 137.973 19.504C139.045 19.84 139.917 20.288 140.589 20.848L139.389 23.752C138.653 23.208 137.901 22.824 137.133 22.6C136.365 22.36 135.533 22.24 134.637 22.24C132.925 22.24 131.637 22.72 130.773 23.68C129.925 24.624 129.501 25.992 129.501 27.784C129.501 29.592 129.933 30.96 130.797 31.888C131.677 32.816 132.973 33.28 134.685 33.28C135.597 33.28 136.557 33.136 137.565 32.848V29.536H133.917V26.848H140.637V35.152C139.805 35.568 138.845 35.888 137.757 36.112C136.669 36.336 135.581 36.448 134.493 36.448Z" fill="#443737"/>
<path d="M151.778 36.448C150.114 36.448 148.65 36.088 147.386 35.368C146.138 34.632 145.162 33.616 144.458 32.32C143.77 31.008 143.426 29.472 143.426 27.712C143.426 25.952 143.77 24.424 144.458 23.128C145.162 21.816 146.138 20.8 147.386 20.08C148.634 19.36 150.098 19 151.778 19C153.458 19 154.922 19.36 156.17 20.08C157.434 20.8 158.41 21.816 159.098 23.128C159.802 24.424 160.154 25.944 160.154 27.688C160.154 29.448 159.802 30.984 159.098 32.296C158.41 33.608 157.434 34.632 156.17 35.368C154.922 36.088 153.458 36.448 151.778 36.448ZM151.778 33.28C153.186 33.28 154.282 32.792 155.066 31.816C155.866 30.824 156.266 29.456 156.266 27.712C156.266 25.952 155.874 24.592 155.09 23.632C154.306 22.656 153.202 22.168 151.778 22.168C150.386 22.168 149.29 22.656 148.49 23.632C147.706 24.592 147.314 25.952 147.314 27.712C147.314 29.456 147.706 30.824 148.49 31.816C149.29 32.792 150.386 33.28 151.778 33.28Z" fill="#443737"/>
<path d="M169.079 36.448C167.751 36.448 166.495 36.28 165.311 35.944C164.143 35.608 163.167 35.152 162.383 34.576L163.463 31.648C164.215 32.176 165.071 32.592 166.031 32.896C167.007 33.2 168.023 33.352 169.079 33.352C170.231 33.352 171.055 33.176 171.551 32.824C172.063 32.456 172.319 32 172.319 31.456C172.319 30.992 172.143 30.624 171.791 30.352C171.439 30.08 170.823 29.848 169.943 29.656L167.231 29.08C164.207 28.44 162.695 26.872 162.695 24.376C162.695 23.304 162.983 22.368 163.559 21.568C164.135 20.752 164.935 20.12 165.959 19.672C166.999 19.224 168.199 19 169.559 19C170.727 19 171.823 19.168 172.847 19.504C173.871 19.84 174.719 20.312 175.391 20.92L174.311 23.656C172.999 22.616 171.407 22.096 169.535 22.096C168.527 22.096 167.743 22.296 167.183 22.696C166.639 23.08 166.367 23.584 166.367 24.208C166.367 24.672 166.535 25.048 166.871 25.336C167.207 25.624 167.791 25.856 168.623 26.032L171.335 26.608C174.439 27.28 175.991 28.8 175.991 31.168C175.991 32.224 175.703 33.152 175.127 33.952C174.567 34.736 173.767 35.352 172.727 35.8C171.703 36.232 170.487 36.448 169.079 36.448Z" fill="#443737"/>
</svg>
